# xmcd
#
# Track frame offsets: 
#        182
#        17385
#        40887
#        56805
#        76912
#        93637
#        114152
#        129332
#        151550
#        165047
#        183270
#        194570
#        210595
#        224502
#        242557
#
# Disc length: 3577 seconds
#
# Revision: 3
# Processed by: cddbd v1.5PL3 Copyright (c) Steve Scherf et al.
# Submitted via: ExactAudioCopy v0.95a5
#
DISCID=b50df70f
DTITLE=Buddy Guy and Junior Wells - Alone and Acoustic
DYEAR=1991
DGENRE=Blues
TTITLE0=Give Me My Coat And Shoes
TTITLE1=Big Boat (Buddy and Junior's Thing)
TTITLE2=Sweet Black Girl
TTITLE3=Diggin' My Potatoes
TTITLE4=Don't Leave Me
TTITLE5=Rollin' and Tumblin'
TTITLE6=I'm In The Mood
TTITLE7=High Heel Sneakers
TTITLE8=Wrong Doing Woman
TTITLE9=Cut You Loose
TTITLE10=Sally Mae
TTITLE11=Catfish Blues
TTITLE12=My Home's In The Delta
TTITLE13=Boogie Chillen
TTITLE14=Medley - Baby What You Want Me To Do - That's Allright
EXTD=produced by Didier Tricard\nRecorded May 15th, 1981 at Sysmo stud
EXTD=io (Paris]\nPreviously released on Isabel 900.510\nexcept 3, 6, 1
EXTD=0, 12 never released\nP991 Distribution Night and Day
EXTT0=Guy, Editions Black and blue, SACEM
EXTT1=Wells, Editions Black and blue, SACEM
EXTT2=Guy, Editions Black and blue, SACEM
EXTT3=Sunny Joe, MCA music, BMI
EXTT4=Guy, Editions Black and blue, SACEM
EXTT5=traditional, Public Domain
EXTT6=Hooker and Beesman , La Cienaga Music, BMI
EXTT7=Higginbotham, Lily Pond Music c/o MPL Music, BMI
EXTT8=Wells, Editions Black and blue, SACEM
EXTT9=London, Publisher unknown
EXTT10=Hooker and Beesman, La Cienaga Music, BMI
EXTT11=Traditional, Public Domain
EXTT12=Morganfield, Watertoons Music/Arc Music, BMI
EXTT13=Hooker and Beesman, La Cienaga Music, BMI
EXTT14=Reed, Conrad Music, BMI/Lane, Arc Music, BMI
PLAYORDER=
